<svg width="24" height="20" viewBox="0 0 24 20" fill="none" xmlns="http://www.w3.org/2000/svg">
<path d="M24 2.55706C23.1166 2.94935 22.1678 3.21334 21.1718 3.33242C22.189 2.72321 22.969 1.75863 23.3363 0.608522C22.3856 1.1725 21.3315 1.58233 20.2091 1.80386C19.3109 0.846666 18.0316 0.248535 16.6157 0.248535C13.8964 0.248535 11.6922 2.45368 11.6922 5.17204C11.6922 5.55787 11.7365 5.93447 11.8195 6.29353C7.7277 6.08862 4.10015 4.12808 1.67071 1.1485C1.24795 1.87586 1.00519 2.72136 1.00519 3.62502C1.00519 5.33265 1.87377 6.83997 3.19465 7.7224C2.38791 7.69656 1.62825 7.47503 0.964578 7.10673C0.964578 7.12796 0.964578 7.14735 0.964578 7.16858C0.964578 9.55464 2.66113 11.5447 4.91427 11.9961C4.50167 12.1087 4.066 12.1687 3.61648 12.1687C3.29987 12.1687 2.99065 12.1373 2.69067 12.081C3.31741 14.0369 5.1358 15.4612 7.29018 15.5009C5.60563 16.8217 3.48264 17.6091 1.17503 17.6091C0.778124 17.6091 0.385831 17.586 0 17.5399C2.1793 18.9364 4.76659 19.7515 7.54771 19.7515C16.6046 19.7515 21.5558 12.249 21.5558 5.74248C21.5558 5.52926 21.5512 5.31696 21.5419 5.10558C22.5047 4.41053 23.34 3.54379 24 2.55706Z" fill="white"/>
</svg>
